<svg width="30" height="30" fill="none" xmlns="http://www.w3.org/2000/svg"><g filter="url(#filter0_d_1_631)"><g clip-path="url(#clip0_1_631)"><path d="M14.413 1.406c.25-.772 1.343-.772 1.594 0l1.955 6.015a.838.838 0 00.796.58h6.327c.811 0 1.15 1.039.493 1.517l-5.119 3.718a.838.838 0 00-.304.936l1.955 6.017c.252.772-.633 1.414-1.29.937l-5.118-3.719a.838.838 0 00-.985 0L9.6 21.127c-.656.476-1.54-.166-1.29-.938l1.956-6.017a.838.838 0 00-.304-.936l-5.12-3.72c-.657-.476-.32-1.515.493-1.515h6.326a.838.838 0 00.796-.579l1.957-6.017z" fill="#230B59"/></g></g><defs><clipPath id="clip0_1_631"><path fill="#fff" transform="translate(4)" d="M0 0h22v22H0z"/></clipPath><filter id="filter0_d_1_631" x="0" y="0" width="30" height="30" filterUnits="userSpaceOnUse" color-interpolation-filters="sRGB"><feFlood flood-opacity="0" result="BackgroundImageFix"/><feColorMatrix in="SourceAlpha" values="0 0 0 0 0 0 0 0 0 0 0 0 0 0 0 0 0 0 127 0" result="hardAlpha"/><feOffset dy="4"/><feGaussianBlur stdDeviation="2"/><feComposite in2="hardAlpha" operator="out"/><feColorMatrix values="0 0 0 0 0 0 0 0 0 0 0 0 0 0 0 0 0 0 0.25 0"/><feBlend in2="BackgroundImageFix" result="effect1_dropShadow_1_631"/><feBlend in="SourceGraphic" in2="effect1_dropShadow_1_631" result="shape"/></filter></defs></svg>