<svg width="25" height="24" viewBox="0 0 25 24" fill="none" xmlns="http://www.w3.org/2000/svg">
<path fill-rule="evenodd" clip-rule="evenodd" d="M20.3395 0.0236816C20.4672 0.0280416 20.5825 0.0363416 20.6835 0.0489616C20.9453 0.0816016 20.9055 0.316502 20.8465 0.667942C19.383 9.3945 18.7352 18.7963 23.8928 23.2914C23.947 23.3413 24.022 23.4459 23.9967 23.4847C23.9717 23.5235 23.8199 23.5026 23.7577 23.4987C21.2187 23.341 10.9796 19.2702 11.4143 1.80154C11.4212 1.52158 11.4586 1.39356 11.8731 1.27266C13.2591 0.868562 17.6405 0.0838616 19.8536 0.0236816H20.3395ZM3.97705 8.8212C4.21868 8.6507 6.95834 7.30088 9.47703 6.40028C9.98137 6.23975 9.97814 6.76152 10.0022 6.89853C12.3555 20.3067 18.1072 21.994 19.7248 23.32C19.9423 23.4646 19.6637 23.5185 19.3878 23.505C7.75831 23.5418 4.25655 12.8466 3.61278 9.3403C3.5534 9.0169 3.73542 8.9916 3.97705 8.8212ZM0.256255 17.3266C0.852336 16.5974 2.58689 15.1341 3.30884 14.6552C3.52775 14.5102 3.68622 14.8451 3.8797 15.3015C4.65947 16.9735 5.82164 18.7328 6.96424 19.8907C9.24791 22.205 11.7455 23.0885 11.8725 23.1919C12.0672 23.3508 12.0655 23.4768 11.6922 23.4906C3.79057 23.7841 0.561252 20.0458 0.0219091 17.8804C-0.0363513 17.6465 0.0149526 17.6217 0.256255 17.3266Z" fill="#230B59"/>
</svg>
